<?xml version="1.0" encoding="UTF-8"?>
<!DOCTYPE svg PUBLIC "-//W3C//DTD SVG 1.1//EN" "http://www.w3.org/Graphics/SVG/1.1/DTD/svg11.dtd">
<svg xmlns="http://www.w3.org/2000/svg" version="1.1" width="4000px" height="4000px" style="shape-rendering:geometricPrecision; text-rendering:geometricPrecision; image-rendering:optimizeQuality; fill-rule:evenodd; clip-rule:evenodd" xmlns:xlink="http://www.w3.org/1999/xlink">
<g><path style="opacity:1" fill="#0171d3" d="M 1157.5,1375.5 C 1188.96,1422.76 1211.46,1474.09 1225,1529.5C 1236.71,1588.53 1233.71,1646.86 1216,1704.5C 1193.87,1774.13 1158.87,1836.13 1111,1890.5C 1049.71,1960.78 975.878,2013.61 889.5,2049C 843.199,2067.13 795.199,2076.13 745.5,2076C 715.676,2070.63 686.676,2062.29 658.5,2051C 642.833,2044.67 627.167,2038.33 611.5,2032C 599.378,2029.09 591.212,2033.59 587,2045.5C 585.528,2049.72 584.528,2054.06 584,2058.5C 569.355,2157.01 556.022,2255.68 544,2354.5C 539.731,2370.45 529.398,2378.45 513,2378.5C 506.477,2378.3 499.977,2377.8 493.5,2377C 467.693,2371.63 442.027,2365.8 416.5,2359.5C 373.509,2348.11 330.842,2335.61 288.5,2322C 265.62,2314.42 253.12,2298.59 251,2274.5C 251.345,2226.68 254.345,2179.01 260,2131.5C 291.38,1878.89 338.38,1629.22 401,1382.5C 403.824,1364.61 404.991,1346.61 404.5,1328.5C 404.274,1303.77 402.94,1279.11 400.5,1254.5C 401.688,1237.96 408.355,1224.13 420.5,1213C 424.007,1210.75 427.673,1208.75 431.5,1207C 538.837,1164.9 650.17,1142.73 765.5,1140.5C 824.33,1140.37 880.33,1152.87 933.5,1178C 1026.16,1223.5 1100.83,1289.33 1157.5,1375.5 Z M 919.5,1568.5 C 907.744,1617.02 885.744,1660.02 853.5,1697.5C 859.679,1667.45 866.179,1637.45 873,1607.5C 876.04,1590.13 885.874,1578.63 902.5,1573C 908.06,1571.03 913.727,1569.53 919.5,1568.5 Z"/></g>
<g><path style="opacity:1" fill="#0171d3" d="M 3599.5,1379.5 C 3605.28,1398.38 3607.44,1417.71 3606,1437.5C 3604.28,1449.88 3602.28,1462.21 3600,1474.5C 3590.52,1512.28 3577.85,1548.94 3562,1584.5C 3553.72,1596.76 3542.22,1604.26 3527.5,1607C 3500.39,1608.83 3473.39,1610 3446.5,1610.5C 3398.17,1610.67 3349.83,1610.5 3301.5,1610C 3299.75,1609.65 3298.09,1609.15 3296.5,1608.5C 3285.76,1603.23 3279.26,1594.56 3277,1582.5C 3276.33,1573.5 3276.33,1564.5 3277,1555.5C 3282.67,1521.06 3285.34,1486.39 3285,1451.5C 3276.87,1398.51 3247.37,1381.01 3196.5,1399C 3176.28,1408.55 3158.28,1421.22 3142.5,1437C 3109,1473.79 3081.83,1514.96 3061,1560.5C 3002.14,1687.86 2977.8,1821.53 2988,1961.5C 2991.45,1992.43 3000.78,2021.43 3016,2048.5C 3047.33,2098.43 3091.16,2115.09 3147.5,2098.5C 3190,2083.17 3221.83,2055.51 3243,2015.5C 3248.84,2003.13 3252.34,1990.13 3253.5,1976.5C 3253.63,1968.26 3249.63,1963.43 3241.5,1962C 3219.31,1962.07 3197.15,1962.91 3175,1964.5C 3168.15,1964.39 3161.31,1964.06 3154.5,1963.5C 3136.55,1956.7 3126.05,1943.7 3123,1924.5C 3114.04,1869.52 3109.38,1814.18 3109,1758.5C 3111.51,1744.99 3119.34,1736.16 3132.5,1732C 3163.02,1726.96 3193.69,1723.46 3224.5,1721.5C 3295.76,1716.99 3367.09,1715.33 3438.5,1716.5C 3480.14,1713.52 3505.47,1732.18 3514.5,1772.5C 3523.78,1807.61 3532.11,1842.94 3539.5,1878.5C 3545.39,1909.48 3551.23,1940.48 3557,1971.5C 3562.15,1993.7 3561.49,2015.7 3555,2037.5C 3521.17,2134.25 3467.01,2217.41 3392.5,2287C 3283.19,2380.96 3158.86,2407.96 3019.5,2368C 2966.75,2352.03 2916.42,2330.53 2868.5,2303.5C 2827.02,2279.82 2789.18,2251.15 2755,2217.5C 2731.08,2189.67 2712.24,2158.67 2698.5,2124.5C 2673.81,2054.36 2662.14,1982.02 2663.5,1907.5C 2665.97,1727.28 2710.47,1558.28 2797,1400.5C 2805.19,1386.78 2813.36,1373.11 2821.5,1359.5C 2854.82,1307.13 2895.49,1260.96 2943.5,1221C 2990.98,1182.27 3044.98,1156.93 3105.5,1145C 3130.34,1140.86 3155.34,1139.53 3180.5,1141C 3278.07,1151.97 3370.07,1180.63 3456.5,1227C 3496.7,1249.2 3532.2,1277.37 3563,1311.5C 3575,1326.15 3585,1342.15 3593,1359.5C 3595.68,1366.04 3597.85,1372.7 3599.5,1379.5 Z M 3147.5,2098.5 C 3145.74,2053.25 3148.07,2008.25 3154.5,1963.5C 3161.31,1964.06 3168.15,1964.39 3175,1964.5C 3197.15,1962.91 3219.31,1962.07 3241.5,1962C 3249.63,1963.43 3253.63,1968.26 3253.5,1976.5C 3252.34,1990.13 3248.84,2003.13 3243,2015.5C 3221.83,2055.51 3190,2083.17 3147.5,2098.5 Z"/></g>
<g><path style="opacity:1" fill="#0171d3" d="M 1699.5,1325.5 C 1691.92,1348.81 1685.08,1372.48 1679,1396.5C 1599.07,1712.32 1539.07,2031.99 1499,2355.5C 1495.53,2367.96 1487.37,2375.13 1474.5,2377C 1461.41,2377.41 1448.41,2376.41 1435.5,2374C 1417.21,2369.97 1398.87,2366.14 1380.5,2362.5C 1336.96,2351.6 1293.96,2338.76 1251.5,2324C 1232.31,2318.13 1220.81,2305.3 1217,2285.5C 1215.95,2277.71 1215.45,2269.88 1215.5,2262C 1217.35,2208 1221.35,2154.17 1227.5,2100.5C 1249.9,1914.78 1280.73,1730.45 1320,1547.5C 1320.5,1544.52 1320.66,1541.52 1320.5,1538.5C 1340.68,1443.46 1364.18,1349.12 1391,1255.5C 1399.89,1225.16 1410.56,1195.49 1423,1166.5C 1431.73,1153.3 1444.06,1146.3 1460,1145.5C 1472.97,1147.28 1485.8,1149.78 1498.5,1153C 1563.99,1169.96 1628.99,1188.62 1693.5,1209C 1716.64,1216.09 1725.8,1231.59 1721,1255.5C 1713.12,1278.64 1705.95,1301.97 1699.5,1325.5 Z"/></g>
<g><path style="opacity:1" fill="#0171d3" d="M 2247.5,1336.5 C 2246.84,1337.62 2246.51,1338.95 2246.5,1340.5C 2249,1377.15 2251.17,1413.81 2253,1450.5C 2257.6,1558.85 2262.6,1667.19 2268,1775.5C 2269.04,1777.75 2270.21,1779.91 2271.5,1782C 2273.44,1782.74 2275.27,1782.58 2277,1781.5C 2279.93,1775.13 2281.93,1768.46 2283,1761.5C 2301.3,1627.25 2324.46,1493.91 2352.5,1361.5C 2366.05,1298.3 2382.88,1235.96 2403,1174.5C 2408.4,1159.11 2419.23,1150.28 2435.5,1148C 2444.87,1147.27 2454.2,1147.6 2463.5,1149C 2535.66,1161.71 2606.33,1180.04 2675.5,1204C 2698.31,1214.46 2707.15,1231.96 2702,1256.5C 2694.78,1278.32 2688.28,1300.32 2682.5,1322.5C 2681.03,1323.35 2680.2,1324.68 2680,1326.5C 2610.95,1578.76 2555.62,1834.09 2514,2092.5C 2507.42,2135.49 2501.09,2178.49 2495,2221.5C 2489.7,2266.89 2484.03,2312.22 2478,2357.5C 2473.6,2368.23 2465.77,2375.06 2454.5,2378C 2444.5,2378.67 2434.5,2378.67 2424.5,2378C 2365.65,2371.53 2307.32,2362.03 2249.5,2349.5C 2218.73,2343.41 2188.39,2335.58 2158.5,2326C 2141.73,2321.29 2128.06,2312.13 2117.5,2298.5C 2108.35,2281.88 2101.85,2264.22 2098,2245.5C 2083.23,2159.98 2072.23,2073.98 2065,1987.5C 2056.49,1889.52 2048.15,1791.52 2040,1693.5C 2039.7,1690.09 2039.04,1686.75 2038,1683.5C 2034.98,1678.73 2031.65,1678.4 2028,1682.5C 2026.44,1684.96 2025.44,1687.62 2025,1690.5C 1985.39,1909.73 1953.39,2130.06 1929,2351.5C 1921.43,2372.21 1906.6,2381.05 1884.5,2378C 1859.82,2374.33 1835.49,2369.17 1811.5,2362.5C 1769.54,2352.18 1728.21,2339.85 1687.5,2325.5C 1664.76,2318.26 1650.93,2302.93 1646,2279.5C 1645.22,2258.13 1645.89,2236.79 1648,2215.5C 1656.17,2130.51 1666.83,2045.85 1680,1961.5C 1712.72,1757.41 1753.55,1555.08 1802.5,1354.5C 1817.74,1292.54 1836.24,1231.54 1858,1171.5C 1866.55,1153.16 1881.05,1144.49 1901.5,1145.5C 1987.89,1154.21 2073.23,1169.05 2157.5,1190C 2175.76,1194.31 2193.43,1200.31 2210.5,1208C 2224.78,1216.95 2234.61,1229.45 2240,1245.5C 2243.32,1275.77 2245.82,1306.1 2247.5,1336.5 Z"/></g>
<g><path style="opacity:0.998" fill="#0cbfde" d="M 2682.5,1322.5 C 2729.34,1333 2775.67,1345.34 2821.5,1359.5C 2813.36,1373.11 2805.19,1386.78 2797,1400.5C 2710.47,1558.28 2665.97,1727.28 2663.5,1907.5C 2662.14,1982.02 2673.81,2054.36 2698.5,2124.5C 2675.61,2253.9 2656.78,2383.9 2642,2514.5C 2638.31,2529.52 2628.81,2538.35 2613.5,2541C 2603.15,2541.45 2592.82,2541.12 2582.5,2540C 2499.97,2530.91 2418.64,2515.58 2338.5,2494C 2328.02,2490.73 2317.68,2487.06 2307.5,2483C 2291.67,2475.17 2279.83,2463.33 2272,2447.5C 2267.87,2437.77 2264.54,2427.77 2262,2417.5C 2257.08,2394.95 2252.91,2372.29 2249.5,2349.5C 2307.32,2362.03 2365.65,2371.53 2424.5,2378C 2434.5,2378.67 2444.5,2378.67 2454.5,2378C 2465.77,2375.06 2473.6,2368.23 2478,2357.5C 2484.03,2312.22 2489.7,2266.89 2495,2221.5C 2501.09,2178.49 2507.42,2135.49 2514,2092.5C 2555.62,1834.09 2610.95,1578.76 2680,1326.5C 2680.2,1324.68 2681.03,1323.35 2682.5,1322.5 Z"/></g>
<g><path style="opacity:0.999" fill="#0cbfde" d="M 1699.5,1325.5 C 1733.9,1334.97 1768.23,1344.63 1802.5,1354.5C 1753.55,1555.08 1712.72,1757.41 1680,1961.5C 1666.83,2045.85 1656.17,2130.51 1648,2215.5C 1645.89,2236.79 1645.22,2258.13 1646,2279.5C 1650.93,2302.93 1664.76,2318.26 1687.5,2325.5C 1678.3,2389.06 1669.8,2452.73 1662,2516.5C 1659.06,2529.11 1651.23,2536.61 1638.5,2539C 1628.47,2539.61 1618.47,2539.28 1608.5,2538C 1541.02,2525.84 1475.02,2508.17 1410.5,2485C 1396.76,2480.26 1387.26,2471.09 1382,2457.5C 1380.03,2451.99 1378.7,2446.32 1378,2440.5C 1377.77,2414.47 1378.61,2388.47 1380.5,2362.5C 1398.87,2366.14 1417.21,2369.97 1435.5,2374C 1448.41,2376.41 1461.41,2377.41 1474.5,2377C 1487.37,2375.13 1495.53,2367.96 1499,2355.5C 1539.07,2031.99 1599.07,1712.32 1679,1396.5C 1685.08,1372.48 1691.92,1348.81 1699.5,1325.5 Z"/></g>
<g><path style="opacity:0.999" fill="#0cbfde" d="M 2247.5,1336.5 C 2283,1342.79 2318,1351.12 2352.5,1361.5C 2324.46,1493.91 2301.3,1627.25 2283,1761.5C 2281.93,1768.46 2279.93,1775.13 2277,1781.5C 2275.27,1782.58 2273.44,1782.74 2271.5,1782C 2270.21,1779.91 2269.04,1777.75 2268,1775.5C 2262.6,1667.19 2257.6,1558.85 2253,1450.5C 2251.17,1413.81 2249,1377.15 2246.5,1340.5C 2246.51,1338.95 2246.84,1337.62 2247.5,1336.5 Z"/></g>
<g><path style="opacity:0.998" fill="#0cbfde" d="M 1157.5,1375.5 C 1188.82,1395.7 1217.82,1419.03 1244.5,1445.5C 1273.64,1473.62 1298.97,1504.62 1320.5,1538.5C 1320.66,1541.52 1320.5,1544.52 1320,1547.5C 1280.73,1730.45 1249.9,1914.78 1227.5,2100.5C 1168.02,2155.27 1099.68,2195.77 1022.5,2222C 984.746,2234.05 946.079,2239.39 906.5,2238C 878.391,2233.14 851.058,2225.47 824.5,2215C 806.833,2208 789.167,2201 771.5,2194C 760.753,2192.74 753.586,2197.24 750,2207.5C 733.002,2310.82 718.335,2414.49 706,2518.5C 701.285,2534.04 690.785,2541.71 674.5,2541.5C 667.463,2540.99 660.463,2540.16 653.5,2539C 582.065,2523.56 511.731,2504.23 442.5,2481C 424.575,2471.68 414.741,2456.85 413,2436.5C 412.778,2410.72 413.944,2385.05 416.5,2359.5C 442.027,2365.8 467.693,2371.63 493.5,2377C 499.977,2377.8 506.477,2378.3 513,2378.5C 529.398,2378.45 539.731,2370.45 544,2354.5C 556.022,2255.68 569.355,2157.01 584,2058.5C 584.528,2054.06 585.528,2049.72 587,2045.5C 591.212,2033.59 599.378,2029.09 611.5,2032C 627.167,2038.33 642.833,2044.67 658.5,2051C 686.676,2062.29 715.676,2070.63 745.5,2076C 795.199,2076.13 843.199,2067.13 889.5,2049C 975.878,2013.61 1049.71,1960.78 1111,1890.5C 1158.87,1836.13 1193.87,1774.13 1216,1704.5C 1233.71,1646.86 1236.71,1588.53 1225,1529.5C 1211.46,1474.09 1188.96,1422.76 1157.5,1375.5 Z"/></g>
<g><path style="opacity:0.997" fill="#0cbfdf" d="M 3599.5,1379.5 C 3645.19,1401.11 3685.36,1430.45 3720,1467.5C 3742.95,1493.07 3758.29,1522.73 3766,1556.5C 3769.75,1581.28 3769.08,1605.94 3764,1630.5C 3760.96,1644.67 3757.29,1658.67 3753,1672.5C 3745.22,1695.38 3736.89,1718.05 3728,1740.5C 3720.13,1756.69 3707.29,1766.53 3689.5,1770C 3685.5,1770.33 3681.5,1770.67 3677.5,1771C 3623.17,1772.27 3568.84,1772.77 3514.5,1772.5C 3505.47,1732.18 3480.14,1713.52 3438.5,1716.5C 3444.58,1681.47 3447.25,1646.14 3446.5,1610.5C 3473.39,1610 3500.39,1608.83 3527.5,1607C 3542.22,1604.26 3553.72,1596.76 3562,1584.5C 3577.85,1548.94 3590.52,1512.28 3600,1474.5C 3602.28,1462.21 3604.28,1449.88 3606,1437.5C 3607.44,1417.71 3605.28,1398.38 3599.5,1379.5 Z"/></g>
<g><path style="opacity:0.999" fill="#0cbfde" d="M 3296.5,1608.5 C 3267.24,1642.64 3243.24,1680.31 3224.5,1721.5C 3193.69,1723.46 3163.02,1726.96 3132.5,1732C 3119.34,1736.16 3111.51,1744.99 3109,1758.5C 3109.38,1814.18 3114.04,1869.52 3123,1924.5C 3126.05,1943.7 3136.55,1956.7 3154.5,1963.5C 3148.07,2008.25 3145.74,2053.25 3147.5,2098.5C 3091.16,2115.09 3047.33,2098.43 3016,2048.5C 3000.78,2021.43 2991.45,1992.43 2988,1961.5C 2977.8,1821.53 3002.14,1687.86 3061,1560.5C 3081.83,1514.96 3109,1473.79 3142.5,1437C 3158.28,1421.22 3176.28,1408.55 3196.5,1399C 3247.37,1381.01 3276.87,1398.51 3285,1451.5C 3285.34,1486.39 3282.67,1521.06 3277,1555.5C 3276.33,1564.5 3276.33,1573.5 3277,1582.5C 3279.26,1594.56 3285.76,1603.23 3296.5,1608.5 Z"/></g>
<g><path style="opacity:0.999" fill="#0cbfde" d="M 919.5,1568.5 C 913.727,1569.53 908.06,1571.03 902.5,1573C 885.874,1578.63 876.04,1590.13 873,1607.5C 866.179,1637.45 859.679,1667.45 853.5,1697.5C 825.245,1734.59 790.912,1764.75 750.5,1788C 719.947,1805.52 687.113,1815.35 652,1817.5C 639.315,1817.81 632.815,1811.65 632.5,1799C 657.739,1681.41 683.572,1563.91 710,1446.5C 713.006,1428.31 723.172,1416.14 740.5,1410C 780.201,1400.96 818.867,1404.29 856.5,1420C 901.288,1442.03 923.955,1478.2 924.5,1528.5C 924.36,1536.19 923.86,1543.86 923,1551.5C 922.676,1557.48 921.509,1563.14 919.5,1568.5 Z"/></g>
<g><path style="opacity:0.998" fill="#0cbfde" d="M 2117.5,2298.5 C 2108.26,2370.78 2099.42,2443.11 2091,2515.5C 2083.49,2534.85 2069.32,2543.35 2048.5,2541C 1977.45,2528.24 1908.12,2509.24 1840.5,2484C 1820.02,2474.83 1808.85,2459 1807,2436.5C 1807.34,2411.75 1808.84,2387.09 1811.5,2362.5C 1835.49,2369.17 1859.82,2374.33 1884.5,2378C 1906.6,2381.05 1921.43,2372.21 1929,2351.5C 1953.39,2130.06 1985.39,1909.73 2025,1690.5C 2025.44,1687.62 2026.44,1684.96 2028,1682.5C 2031.65,1678.4 2034.98,1678.73 2038,1683.5C 2039.04,1686.75 2039.7,1690.09 2040,1693.5C 2048.15,1791.52 2056.49,1889.52 2065,1987.5C 2072.23,2073.98 2083.23,2159.98 2098,2245.5C 2101.85,2264.22 2108.35,2281.88 2117.5,2298.5 Z"/></g>
<g><path style="opacity:0.998" fill="#0cbfdf" d="M 3539.5,1878.5 C 3563.17,1878.33 3586.84,1878.5 3610.5,1879C 3638.82,1878.04 3658.98,1890.21 3671,1915.5C 3692.98,1993.76 3709.98,2073.09 3722,2153.5C 3724.13,2174.27 3721.13,2194.27 3713,2213.5C 3680.65,2299.09 3632.15,2373.92 3567.5,2438C 3457.43,2540.85 3329.43,2571.85 3183.5,2531C 3093.87,2504.53 3013.2,2461.86 2941.5,2403C 2909.71,2375.23 2885.38,2342.07 2868.5,2303.5C 2916.42,2330.53 2966.75,2352.03 3019.5,2368C 3158.86,2407.96 3283.19,2380.96 3392.5,2287C 3467.01,2217.41 3521.17,2134.25 3555,2037.5C 3561.49,2015.7 3562.15,1993.7 3557,1971.5C 3551.23,1940.48 3545.39,1909.48 3539.5,1878.5 Z"/></g>
</svg>
